<?xml version="1.0" encoding="UTF-8"?>
<!-- Generated by Pixelmator Pro 3.6.18 -->
<svg width="1024" height="288" viewBox="0 0 1024 288" xmlns="http://www.w3.org/2000/svg">
    <linearGradient id="linearGradient1" x1="271.6272" y1="189.16" x2="46.29016" y2="191.2472" gradientUnits="userSpaceOnUse">
        <stop offset="1e-05" stop-color="#3585a3" stop-opacity="1"/>
        <stop offset="1" stop-color="#00deae" stop-opacity="1"/>
    </linearGradient>
    <path id="Path" fill="url(#linearGradient1)" stroke="none" d="M 276.523987 143.395203 L 224.468002 133.764801 L 218.5112 144.079193 L 203.850403 169.462402 L 165.784805 235.369598 C 164.117599 238.255203 159.722397 237.067993 159.722397 233.732803 L 159.722397 178.342407 L 159.722397 172.329605 C 159.722397 169.207199 157.520798 166.5224 154.469604 165.923203 L 95.1632 154.272797 L 42.074322 144.566406 C 42.154961 147.324005 42.80632 150.068802 44.046558 152.608795 L 87.862396 228.642395 C 93.975197 239.250397 105.261597 245.776794 117.468002 245.760803 L 201.4944 245.648804 C 213.694397 245.632797 224.958405 239.083206 231.046402 228.468002 L 273.927185 153.690399 C 275.755188 150.510406 276.61441 146.943207 276.523987 143.395203 Z"/>
    <linearGradient id="linearGradient2" x1="53.42136" y1="99.636" x2="253.6056" y2="94.4168" gradientUnits="userSpaceOnUse">
        <stop offset="1e-05" stop-color="#3585a3" stop-opacity="1"/>
        <stop offset="1" stop-color="#00deae" stop-opacity="1"/>
    </linearGradient>
    <path id="path1" fill="url(#linearGradient2)" stroke="none" d="M 101.136002 143.908005 L 115.819199 118.428009 L 153.658401 52.762558 C 155.323196 49.87384 159.722397 51.059601 159.722397 54.397278 L 159.722397 115.768005 C 159.722397 118.8936 161.928802 121.580811 164.984802 122.175995 L 224.468002 133.765594 L 276.523987 143.395996 C 276.457611 140.790405 275.872803 138.197601 274.77121 135.773605 C 274.511993 135.203201 274.233612 134.639206 273.917603 134.090393 L 230.982407 59.391205 C 224.881607 48.778168 213.605606 42.239761 201.402405 42.239761 L 117.088799 42.239761 C 104.865601 42.239761 93.574402 48.798721 87.481598 59.438568 L 44.66856 134.199997 C 44.57 134.371201 44.484482 134.547195 44.391521 134.720795 C 42.747841 137.789597 41.975361 141.186401 42.074322 144.5672 L 95.1632 154.273605 L 101.136002 143.908005 Z"/>
    <g id="Group">
        <path id="path2" fill="#020403" fill-rule="evenodd" stroke="none" d="M 443.963196 48.349609 L 443.963196 198.629593 L 469.514404 198.629593 L 469.514404 136.103195 C 469.514404 121.227203 479.392792 110.877594 493.347992 110.877594 C 507.0896 110.877594 515.035217 120.14801 515.035217 135.025604 L 515.035217 198.629593 L 540.586426 198.629593 L 540.586426 131.360001 C 540.586426 104.40799 525.985596 87.806396 501.077606 87.806396 C 486.264008 87.806396 474.451996 94.70639 469.514404 105.055206 L 469.514404 48.349609 L 443.963196 48.349609 Z M 414.953613 121.872803 L 430.841614 105.269592 C 419.247986 92.766403 404.861603 86.512802 387.468811 86.512802 C 370.934387 86.512802 356.976807 92.118408 345.596008 103.115204 C 334.21759 114.110397 328.633606 127.69281 328.633606 144.079193 C 328.633606 160.465607 334.21759 174.264801 345.596008 185.261597 C 356.976807 196.258408 370.934387 201.647202 387.468811 201.647202 C 404.861603 201.647202 419.247986 195.395203 430.841614 182.888794 L 414.953613 166.287994 C 407.436005 174.264801 398.203186 178.147202 387.468811 178.147202 C 378.020813 178.147202 370.075195 174.912003 363.635193 168.444 C 357.40799 161.975204 354.184814 153.780807 354.184814 144.079193 C 354.184814 134.377594 357.407196 126.184799 363.635193 119.716797 C 370.075195 113.248001 378.020813 110.014404 387.468811 110.014404 C 398.203186 110.014404 407.436005 113.894409 414.953613 121.872803 Z M 644.319214 105.703201 L 644.319214 89.963196 L 670.086426 89.963196 L 670.086426 198.629593 L 644.319214 198.629593 L 644.319214 182.889603 C 640.668823 193.4552 627.56958 201.000793 609.748779 201.000793 C 594.504028 201.000793 581.620789 195.611206 571.098389 184.830399 C 560.791992 173.835205 555.638428 160.4664 555.638428 144.296005 C 555.638428 128.126404 560.791992 114.756805 571.098389 103.978394 C 581.620789 92.981598 594.504028 87.59201 609.748779 87.59201 C 627.56958 87.59201 640.668823 95.137604 644.319214 105.703201 Z M 636.5896 168.012802 C 643.029602 161.760803 646.252808 153.783203 646.252808 144.296005 C 646.252808 134.809601 643.029602 126.831207 636.5896 120.579193 C 630.361572 114.327209 622.416016 111.092804 613.184021 111.092804 C 603.952026 111.092804 596.436829 114.327209 590.209595 120.579193 C 584.197571 126.831207 581.189575 134.809601 581.189575 144.296005 C 581.189575 153.783203 584.197571 161.760803 590.209595 168.012802 C 596.436829 174.264801 603.952026 177.5 613.184021 177.5 C 622.416016 177.5 630.361572 174.264801 636.5896 168.012802 Z M 689.86322 48.349609 L 689.86322 198.629593 L 715.414429 198.629593 L 715.414429 166.936005 L 726.148804 154.861603 L 760.291992 198.629593 L 789.494385 198.629593 L 742.683228 138.475204 L 784.984802 89.962402 L 755.351196 89.962402 L 715.414429 136.103195 L 715.414429 48.349609 L 689.86322 48.349609 Z M 798.106384 198.629593 L 798.106384 89.962402 L 823.656006 89.962402 L 823.656006 106.132797 C 828.807983 94.70639 840.616028 87.806396 855.864014 87.806396 C 858.872009 87.806396 861.447998 88.021606 863.59198 88.454407 L 863.59198 113.464798 C 860.375977 112.816803 856.719971 112.38559 852.856018 112.38559 C 835.039978 112.38559 823.656006 123.597595 823.656006 141.492004 L 823.656006 198.628799 L 798.106384 198.629593 Z M 956.16803 89.963196 L 956.16803 105.703201 C 952.52002 95.137604 939.416016 87.59201 921.599976 87.59201 C 906.35199 87.59201 893.471985 92.981598 882.94397 103.978394 C 872.640015 114.756805 867.487976 128.126404 867.487976 144.296005 C 867.487976 160.4664 872.640015 173.835205 882.94397 184.830399 C 893.471985 195.611206 906.35199 201.000793 921.599976 201.000793 C 939.416016 201.000793 952.52002 193.4552 956.16803 182.889603 L 956.16803 198.629593 L 981.935974 198.629593 L 981.935974 89.963196 L 956.16803 89.963196 Z M 958.104004 144.296005 C 958.104004 153.783203 954.880005 161.760803 948.440002 168.012802 C 942.208008 174.264801 934.263977 177.5 925.031982 177.5 C 915.799988 177.5 908.288025 174.264801 902.05603 168.012802 C 896.047974 161.760803 893.039978 153.783203 893.039978 144.296005 C 893.039978 134.809601 896.047974 126.831207 902.05603 120.579193 C 908.288025 114.327209 915.799988 111.092804 925.031982 111.092804 C 934.263977 111.092804 942.208008 114.327209 948.440002 120.579193 C 954.880005 126.831207 958.104004 134.809601 958.104004 144.296005 Z"/>
    </g>
</svg>
